{"title":"Rihanna - Where Have You Been [Music Video] 720p [Sbyky]","uid":8116313,"size":75145476,"categoryP":"video","categoryS":"music_videos","magnet":"?xt=urn:btih:ef40c2269928958368a18568da66f3fe3fe3a52d&amp;dn=Rihanna+-+Where+Have+You+Been+%5BMusic+Video%5D+720p+%5BSbyky%5D&amp;tr=udp%3A%2F%2Ftracker.openbittorrent.com%3A80&amp;tr=udp%3A%2F%2Fopen.demonii.com%3A1337&amp;tr=udp%3A%2F%2Ftracker.coppersurfer.tk%3A6969&amp;tr=udp%3A%2F%2Fexodus.desync.com%3A6969","seeders":1,"leechers":0,"uploader":"Sbyky","files":-1,"time":1360308428,"description":"[IMG]http://www.shotpix.com/images/93968378405742850782.jpg[/IMG]\n\nGeneral\nComplete name                            : Rihanna - Where Have You Been [Music Video] 720p [Sbyky].mp4\nFormat                                   : MPEG-4\nFormat profile                           : Base Media / Version 2\nCodec ID                                 : mp42\nFile size                                : 71.7 MiB\nDuration                                 : 4mn 13s\nOverall bit rate mode                    : Variable\nOverall bit rate                         : 2 367 Kbps\nEncoded date                             : UTC 2012-04-26 18:40:39\nTagged date                              : UTC 2012-04-26 18:40:39\ngsst                                     : 0\ngstd                                     : 254071\ngssd                                     : BB6B02809HH1341481461331921\n\nVideo\nID                                       : 1\nFormat                                   : AVC\nFormat/Info                              : Advanced Video Codec\nFormat profile                           : &lt;a class=&quot;__cf_email__&quot; href=&quot;/cdn-cgi/l/email-protection&quot; data-cfemail=&quot;cb83a2aca38b87f8e5fa&quot;&gt;[email&amp;#160;protected]&lt;/a&gt;&lt;script cf-hash='f9e31' type=&quot;text/javascript&quot;&gt;\n/* &lt;![CDATA[ */!function(){try{var t=&quot;currentScript&quot;in document?document.currentScript:function(){for(var t=document.getElementsByTagName(&quot;script&quot;),e=t.length;e--;)if(t[e].getAttribute(&quot;cf-hash&quot;))return t[e]}();if(t&amp;&amp;t.previousSibling){var e,r,n,i,c=t.previousSibling,a=c.getAttribute(&quot;data-cfemail&quot;);if(a){for(e=&quot;&quot;,r=parseInt(a.substr(0,2),16),n=2;a.length-n;n+=2)i=parseInt(a.substr(n,2),16)^r,e+=String.fromCharCode(i);e=document.createTextNode(e),c.parentNode.replaceChild(e,c)}}}catch(u){}}();/* ]]&gt; */&lt;/script&gt;\nFormat settings, CABAC                   : Yes\nFormat settings, ReFrames                : 1 frame\nFormat settings, GOP                     : M=1, N=30\nCodec ID                                 : avc1\nCodec ID/Info                            : Advanced Video Coding\nDuration                                 : 4mn 13s\nBit rate                                 : 2 219 Kbps\nMaximum bit rate                         : 7 004 Kbps\nWidth                                    : 1 280 pixels\nHeight                                   : 720 pixels\nDisplay aspect ratio                     : 16:9\nFrame rate mode                          : Constant\nFrame rate                               : 23.976 fps\nColor space                              : YUV\nChroma subsampling                       : 4:2:0\nBit depth                                : 8 bits\nScan type                                : Progressive\nBits/(Pixel*Frame)                       : 0.100\nStream size                              : 67.2 MiB (94%)\nTagged date                              : UTC 2012-04-26 18:40:40\n\nAudio\nID                                       : 2\nFormat                                   : AAC\nFormat/Info                              : Advanced Audio Codec\nFormat profile                           : LC\nCodec ID                                 : 40\nDuration                                 : 4mn 13s\nBit rate mode                            : Variable\nBit rate                                 : 144 Kbps\nMaximum bit rate                         : 183 Kbps\nChannel(s)                               : 2 channels\nChannel positions                        : Front: L R\nSampling rate                            : 44.1 KHz\nCompression mode                         : Lossy\nStream size                              : 4.40 MiB (6%)\nTitle                                    : IsoMedia File Produced by Google, 5-11-2011\nEncoded date                             : UTC 2012-04-26 18:40:40\nTagged date                              : UTC 2012-04-26 18:40:40\n\nShared By Sbyky\n[IMG]http://www.shotpix.com/images/93673952718153918459.gif[/IMG]\n[IMG]http://www.shotpix.com/images/30389343628541615007.gif[/IMG]","torrent":{"xt":"urn:btih:ef40c2269928958368a18568da66f3fe3fe3a52d","amp;dn":"Rihanna+-+Where+Have+You+Been+%5BMusic+Video%5D+720p+%5BSbyky%5D","amp;tr":["udp%3A%2F%2Ftracker.openbittorrent.com%3A80","udp%3A%2F%2Fopen.demonii.com%3A1337","udp%3A%2F%2Ftracker.coppersurfer.tk%3A6969","udp%3A%2F%2Fexodus.desync.com%3A6969"],"infoHash":"ef40c2269928958368a18568da66f3fe3fe3a52d","infoHashBuffer":{"type":"Buffer","data":[239,64,194,38,153,40,149,131,104,161,133,104,218,102,243,254,63,227,165,45]},"announce":[],"urlList":[]}}